<?xml version="1.0" encoding="UTF-8" standalone="no"?><!-- Generator: Gravit.io --><svg xmlns="http://www.w3.org/2000/svg" xmlns:xlink="http://www.w3.org/1999/xlink" style="isolation:isolate" viewBox="0 0 33 33" width="33pt" height="33pt"><defs><clipPath id="_clipPath_S5L8Zxyi6N2hxkhmJ8cqVq3nMVjWmN00"><rect width="33" height="33"/></clipPath></defs><g clip-path="url(#_clipPath_S5L8Zxyi6N2hxkhmJ8cqVq3nMVjWmN00)"><path d=" M 29.375 12.363 C 29.645 12.055 29.925 11.73 30.116 11.513 C 27.221 8.593 24.427 5.771 21.563 2.875 C 21.252 3.207 20.952 3.525 20.681 3.822 C 21.583 5.187 28.403 11.893 29.375 12.363 Z  M 21.513 30.142 C 24.437 27.231 27.251 24.433 30.116 21.584 C 30.025 21.471 29.905 21.279 29.755 21.126 C 29.595 20.972 29.405 20.857 29.074 20.615 C 26.049 23.248 23.496 26.321 20.551 28.999 C 20.751 29.321 20.832 29.49 20.952 29.619 C 21.132 29.817 21.342 29.988 21.513 30.142 Z  M 18.798 27.4 C 21.713 24.512 24.527 21.722 27.492 18.786 C 27.301 18.566 27.021 18.243 26.771 17.957 C 23.766 20.967 20.982 23.752 18.027 26.703 C 18.328 26.978 18.648 27.269 18.798 27.4 Z  M 8.112 16.543 C 8.563 17.368 15.363 24.215 16.525 24.979 C 17.837 24.084 24.507 17.318 24.938 16.436 C 23.466 14.617 17.296 8.596 16.505 8.171 C 13.711 10.966 10.917 13.745 8.112 16.543 Z  M 14.192 27.446 C 14.392 27.267 14.682 27.001 14.953 26.757 C 12.018 23.81 9.214 20.987 6.37 18.12 C 6.239 18.224 6.049 18.347 5.899 18.509 C 5.749 18.668 5.649 18.867 5.649 18.862 C 8.533 21.757 11.327 24.568 14.192 27.446 Z  M 11.537 30.146 C 11.798 29.865 12.108 29.516 12.519 29.067 C 9.625 26.183 6.83 23.397 3.976 20.54 C 3.515 20.945 3.185 21.236 2.904 21.491 C 5.839 24.438 8.643 27.247 11.537 30.146 Z  M 11.297 2.859 C 8.433 5.723 5.598 8.55 2.714 11.435 C 3.165 11.849 3.465 12.117 3.806 12.433 C 5.448 11.168 11.778 4.733 12.309 3.803 C 12.178 3.642 12.058 3.447 11.898 3.293 C 11.748 3.143 11.547 3.036 11.297 2.859 Z  M 14.232 5.701 C 11.317 8.599 8.513 11.397 5.568 14.33 C 5.739 14.526 6.019 14.845 6.209 15.057 C 9.234 12.051 12.058 9.242 14.953 6.354 C 14.692 6.119 14.372 5.83 14.232 5.701 Z  M 18.478 5.947 C 18.368 6.076 18.278 6.242 17.937 6.765 C 20.781 9.595 23.596 12.391 26.51 15.283 C 26.991 14.707 27.271 14.377 27.532 14.071 C 26.009 12.138 19.349 5.627 18.869 5.647 C 18.768 5.724 18.608 5.817 18.478 5.947 Z  M 30.636 13.965 C 31.418 14.788 32.159 15.576 33 16.466 C 32.189 17.316 31.408 18.129 30.536 19.042 C 31.418 19.953 32.229 20.797 32.95 21.545 C 29.124 25.362 25.388 29.095 21.543 32.939 C 20.852 32.298 20.03 31.528 19.139 30.685 C 18.278 31.39 17.446 32.079 16.455 32.897 C 15.674 32.158 14.893 31.426 14.011 30.592 C 13.13 31.42 12.269 32.219 11.437 33 C 10.326 32.368 1.993 24.081 0 21.632 C 0.831 20.765 1.622 19.951 2.494 19.044 C 1.632 18.158 0.851 17.354 0 16.476 C 0.831 15.612 1.582 14.83 2.414 13.964 C 1.572 13.093 0.781 12.284 0.14 11.616 C 3.966 7.798 7.702 4.059 11.558 0.211 C 12.198 0.81 13.02 1.583 13.941 2.455 C 14.782 1.646 15.594 0.869 16.495 0 C 17.396 0.843 18.208 1.614 19.109 2.457 C 19.98 1.62 20.792 0.838 21.463 0.193 C 25.288 4.012 29.034 7.749 32.88 11.582 C 32.259 12.242 31.488 13.062 30.636 13.965 Z  M 13.22 16.404 C 14.442 17.61 15.514 18.656 16.525 19.652 C 17.557 18.656 18.658 17.593 19.67 16.608 C 18.528 15.499 17.396 14.409 16.235 13.282 C 15.283 14.264 14.242 15.343 13.22 16.404 Z  M 16.475 10.381 C 18.538 12.457 20.571 14.493 22.714 16.644 C 20.721 18.635 18.628 20.716 16.455 22.888 C 14.302 20.716 12.108 18.801 10.346 16.611 C 12.449 14.474 14.462 12.429 16.475 10.381 Z " fill-rule="evenodd" fill="rgb(26,25,25)"/></g></svg>