<?xml version="1.0" standalone="no"?>
<!DOCTYPE svg PUBLIC "-//W3C//DTD SVG 20010904//EN"
 "http://www.w3.org/TR/2001/REC-SVG-20010904/DTD/svg10.dtd">
<svg version="1.0" xmlns="http://www.w3.org/2000/svg"
 width="700.000000pt" height="700.000000pt" viewBox="0 0 700.000000 700.000000"
 preserveAspectRatio="xMidYMid meet">
<metadata>
Created by potrace 1.11, written by Peter Selinger 2001-2013
</metadata>
<g transform="translate(0.000000,700.000000) scale(0.100000,-0.100000)"
fill="#000000" stroke="none">
<path d="M3484 6986 c-20 -21 -414 -399 -472 -452 l-57 -53 -49 47 c-27 26
-59 56 -71 67 -12 11 -76 72 -144 135 -219 206 -235 220 -243 218 -4 -2 -550
-545 -1213 -1208 l-1205 -1205 69 -70 c38 -38 97 -99 131 -135 34 -36 112
-116 173 -178 60 -62 108 -114 106 -117 -2 -2 -76 -79 -164 -171 -88 -91 -201
-210 -252 -263 l-92 -96 37 -39 c50 -51 166 -171 345 -354 l148 -151 -148
-152 c-81 -84 -155 -160 -163 -169 -8 -9 -61 -64 -118 -122 l-103 -105 94
-109 c218 -253 487 -534 1077 -1124 632 -633 965 -949 1179 -1122 83 -67 65
-70 163 23 26 26 72 68 101 94 28 27 111 103 182 171 72 67 141 132 154 143
l25 22 40 -39 c23 -22 57 -55 77 -73 20 -19 98 -93 175 -165 76 -73 159 -150
183 -172 l43 -39 157 129 c86 72 174 145 196 163 22 18 58 48 81 66 94 79 127
104 134 104 4 0 77 -65 161 -145 320 -301 341 -321 351 -318 4 2 550 544 1213
1206 l1205 1203 -38 38 c-20 21 -129 134 -242 251 -113 117 -211 219 -219 227
-12 12 -7 21 32 61 25 26 62 65 83 87 33 36 100 106 321 336 l72 75 -40 44
c-23 25 -105 112 -183 194 -77 82 -156 166 -175 185 -18 20 -49 52 -68 73
l-35 36 65 69 c35 37 88 93 117 123 28 30 104 111 168 179 64 68 118 127 120
130 1 4 -502 511 -1119 1126 -616 616 -1160 1159 -1208 1207 l-87 88 -65 -61
c-35 -34 -114 -109 -174 -167 -61 -59 -144 -140 -186 -180 l-76 -72 -44 41
c-24 23 -78 73 -119 112 -41 39 -111 104 -155 146 -258 242 -235 224 -251 207z
m-1033 -628 c64 -46 97 -78 131 -126 l29 -42 -33 -43 c-18 -23 -42 -53 -53
-66 -22 -27 -188 -213 -220 -247 -11 -11 -83 -88 -160 -170 -188 -199 -848
-860 -1009 -1009 -71 -66 -134 -125 -140 -130 -54 -51 -180 -155 -188 -155 -5
0 -30 20 -56 44 -67 62 -103 95 -132 120 -14 12 -29 27 -33 33 -5 7 328 347
900 917 499 498 910 906 913 906 3 0 26 -14 51 -32z m3439 -1297 c267 -270
486 -495 488 -501 2 -6 -27 -45 -64 -88 -37 -42 -71 -81 -75 -85 -10 -13 -37
4 -136 85 -89 73 -112 93 -238 207 -299 273 -998 964 -1200 1186 -55 60 -117
128 -137 150 -62 68 -139 167 -136 175 2 4 43 52 93 105 l89 97 416 -420 c228
-232 633 -641 900 -911z m-1829 710 c65 -44 291 -243 533 -471 119 -111 831
-823 926 -925 113 -121 254 -278 287 -320 l31 -41 -100 -119 c-55 -66 -103
-123 -107 -128 -12 -13 -1825 1789 -1818 1808 3 6 26 43 51 82 44 69 118 143
141 143 6 0 31 -13 56 -29z m-918 -93 l28 -25 -703 -701 c-387 -385 -804 -801
-927 -923 l-223 -222 -64 69 c-35 38 -63 74 -64 81 0 9 1687 1700 1804 1808
l29 27 46 -45 c25 -24 59 -55 74 -69z m547 -563 c440 -395 1272 -1221 1543
-1534 48 -56 54 -67 45 -85 -37 -69 -272 -331 -633 -704 -463 -479 -978 -974
-1116 -1073 l-26 -18 -79 65 c-338 281 -1430 1377 -1664 1672 l-41 51 893 890
892 889 56 -43 c30 -24 89 -73 130 -110z m2120 -2076 l19 -26 -782 -775 c-430
-427 -844 -837 -920 -912 l-138 -137 -32 27 c-18 14 -55 47 -82 73 l-51 46
926 928 925 928 58 -63 c32 -35 67 -75 77 -89z m-4048 -296 c224 -225 632
-635 908 -913 l500 -505 -37 -35 c-21 -19 -57 -52 -80 -72 l-43 -38 -837 841
c-461 463 -869 872 -907 909 l-69 68 18 29 c22 35 115 123 130 123 6 0 194
-183 417 -407z m-13 -1006 c496 -494 901 -901 901 -905 0 -4 -26 -34 -58 -68
-31 -33 -77 -82 -101 -109 l-44 -47 -916 916 -916 916 31 27 c17 16 64 57 103
93 71 64 93 81 98 77 1 -1 407 -406 902 -900z m4551 791 c14 -13 40 -42 58
-64 l32 -41 -850 -844 c-467 -464 -878 -873 -914 -908 -56 -55 -66 -62 -79
-50 -76 71 -137 134 -137 141 0 5 -11 26 -26 47 l-25 39 63 58 c49 46 198 191
372 360 6 6 137 141 291 299 384 397 738 750 875 875 63 58 135 124 159 147
l45 41 56 -39 c30 -21 66 -49 80 -61z"/>
<path d="M3320 4621 c-91 -93 -379 -386 -640 -651 -261 -265 -475 -488 -475
-495 0 -16 178 -223 316 -369 185 -195 956 -951 970 -951 5 0 305 296 667 657
l659 658 -656 660 c-361 363 -661 660 -666 660 -6 0 -85 -76 -175 -169z m245
-556 c130 -125 529 -512 567 -550 l40 -39 -100 -96 c-55 -52 -203 -196 -330
-318 -127 -123 -234 -223 -239 -222 -10 3 -693 672 -693 680 0 3 37 43 81 90
180 188 506 524 529 546 l24 24 29 -28 c16 -15 58 -54 92 -87z"/>
</g>
</svg>
